<svg xmlns="http://www.w3.org/2000/svg" xml:space="preserve" width="8.66666in" height="8.66666in" style="shape-rendering:geometricPrecision; text-rendering:geometricPrecision; image-rendering:optimizeQuality; fill-rule:evenodd; clip-rule:evenodd" viewBox="0 0 8.66666 8.66666" xmlns:xlink="http://www.w3.org/1999/xlink">
<defs>
<style type="text/css">
   
    .fil0 {fill:black}
   
  </style>
</defs>
<g id="Layer_x0020_1">
<metadata id="CorelCorpID_0Corel-Layer"></metadata>
<path class="fil0" d="M6.73333 5.69131l0 -2.65732 -2.35496 1.36548c-0.0246339,0.016748 -0.0576811,0.0190118 -0.0851732,0.00307087l9.44882e-005 -0.000165354 -2.35996 -1.36838 0 2.65732 4.8 0zm-2.89237 -1.09527c0.0227795,0.0377953 0.0106102,0.0869094 -0.027185,0.109689l-1.13 0.68328c-0.0377953,0.0227795 -0.0869094,0.0106102 -0.109689,-0.027185 -0.0227795,-0.0377953 -0.0106102,-0.0869094 0.027185,-0.109689l1.13 -0.68328c0.0377953,-0.0227795 0.0869094,-0.0106102 0.109689,0.027185zm0.982681 0.00322441c0.0219173,-0.0381417 0.0706102,-0.0512913 0.108752,-0.029374l1.13143 0.653232c0.0381417,0.0219173 0.0512913,0.0706102 0.029374,0.108752 -0.0219173,0.0381417 -0.0706102,0.0512913 -0.108752,0.029374l-1.13143 -0.653232c-0.0381417,-0.0219173 -0.0512913,-0.0706102 -0.029374,-0.108752z" id="id_101" style="fill: rgb(255, 255, 255);"></path>
<polygon class="fil0" points="4.33333,4.24107 6.51625,2.97535 2.15041,2.97535 " id="id_102" style="fill: rgb(255, 255, 255);"></polygon>
<path class="fil0" d="M4.33333 0c2.39323,0 4.33333,1.9401 4.33333,4.33333 0,2.39323 -1.9401,4.33333 -4.33333,4.33333 -2.39323,0 -4.33333,-1.9401 -4.33333,-4.33333 0,-2.39323 1.9401,-4.33333 4.33333,-4.33333zm0 0.479996c2.12814,0 3.85333,1.7252 3.85333,3.85333 0,2.12814 -1.7252,3.85333 -3.85333,3.85333 -2.12814,0 -3.85333,-1.7252 -3.85333,-3.85333 0,-2.12814 1.7252,-3.85333 3.85333,-3.85333z" id="id_103" style="fill: rgb(255, 255, 255);"></path>
</g>
</svg>